<svg width="512" height="512" viewBox="0 0 512 512" fill="none" xmlns="http://www.w3.org/2000/svg">
<path d="M105.1 202.6C112.8 180.8 125.3 160.3 142.9 142.8C205.4 80.3 306.7 80.3 369.2 142.8L386.3 160H336C318.3 160 304 174.3 304 192C304 209.7 318.3 224 336 224H463.5H463.9C481.6 224 495.9 209.7 495.9 192V64C495.9 46.3 481.6 32 463.9 32C446.2 32 431.9 46.3 431.9 64V115.2L414.4 97.6C326.9 10.1 185.1 10.1 97.6 97.6C73.2 122 55.6 150.7 44.8 181.4C38.9 198.1 47.7 216.3 64.3 222.2C80.9 228.1 99.2 219.3 105.1 202.7V202.6ZM39 289.3C34 290.8 29.2 293.5 25.3 297.5C21.3 301.5 18.6 306.3 17.2 311.5C16.9 312.7 16.6 314 16.4 315.3C16.1 317 16 318.7 16 320.4V448C16 465.7 30.3 480 48 480C65.7 480 80 465.7 80 448V396.9L97.6 414.4C185.1 501.8 326.9 501.8 414.3 414.4C438.7 390 456.4 361.3 467.2 330.7C473.1 314 464.3 295.8 447.7 289.9C431.1 284 412.8 292.8 406.9 309.4C399.2 331.2 386.7 351.7 369.1 369.2C306.6 431.7 205.3 431.7 142.8 369.2L142.7 369.1L125.6 352H176C193.7 352 208 337.7 208 320C208 302.3 193.7 288 176 288H48.4C46.8 288 45.2 288.1 43.6 288.3C42 288.5 40.5 288.8 39 289.3Z" fill="white"/>
</svg>
